<?xml version="1.0" encoding="UTF-8" standalone="no"?><!DOCTYPE svg PUBLIC "-//W3C//DTD SVG 1.1//EN" "http://www.w3.org/Graphics/SVG/1.1/DTD/svg11.dtd"><svg width="100%" height="100%" viewBox="0 0 478 478" version="1.1" xmlns="http://www.w3.org/2000/svg" xmlns:xlink="http://www.w3.org/1999/xlink" xml:space="preserve" xmlns:serif="http://www.serif.com/" style="fill-rule:evenodd;clip-rule:evenodd;stroke-linejoin:round;stroke-miterlimit:2;"><path d="M88.889,161.111c0,-9.143 7.524,-16.667 16.667,-16.667l266.667,0c9.143,0 16.667,7.524 16.667,16.667c0,9.143 -7.524,16.667 -16.667,16.667l-266.667,0c-9.143,0 -16.667,-7.524 -16.667,-16.667m16.667,-72.222c-9.143,0 -16.667,7.524 -16.667,16.667c0,9.143 7.524,16.667 16.667,16.667l266.667,0c9.143,0 16.667,-7.524 16.667,-16.667c0,-9.143 -7.524,-16.667 -16.667,-16.667l-266.667,0Z" style="fill:#003a65;fill-rule:nonzero;"/><path d="M139.444,0l198.889,0c25.956,0 46.867,0 63.511,1.933c17.244,2 32,6.222 44.556,16.244c4.889,3.896 9.289,8.296 13.2,13.2c10,12.556 14.244,27.333 16.244,44.556c1.933,16.644 1.933,37.556 1.933,63.511l0,2.089c0,34.889 0,62.489 -2.533,84.378c-2.6,22.444 -8.067,40.978 -20.489,56.578c-4.948,6.193 -10.519,11.763 -16.711,16.711c-15.6,12.444 -34.133,17.889 -56.578,20.489c-21.889,2.533 -49.511,2.533 -84.378,2.533l-116.4,0c-34.889,0 -62.489,0 -84.378,-2.533c-22.444,-2.6 -40.978,-8.067 -56.578,-20.489c-6.172,-4.934 -11.777,-10.539 -16.711,-16.711c-12.444,-15.6 -17.889,-34.133 -20.489,-56.578c-2.533,-21.889 -2.533,-49.511 -2.533,-84.378l0,-2.089c0,-25.956 0,-46.867 1.933,-63.511c2,-17.244 6.222,-32 16.244,-44.556c3.899,-4.874 8.326,-9.301 13.2,-13.2c12.556,-10 27.333,-14.244 44.556,-16.244c16.644,-1.933 37.556,-1.933 63.511,-1.933m-59.689,35.044c-14.156,1.644 -21.911,4.667 -27.6,9.2c-2.919,2.34 -5.572,4.993 -7.911,7.911c-4.533,5.689 -7.556,13.444 -9.2,27.6c-1.689,14.511 -1.711,33.489 -1.711,60.711c0,36.178 0.022,61.867 2.311,81.6c2.244,19.378 6.489,30.889 13.444,39.622c3.378,4.237 7.193,8.052 11.444,11.444c6.911,5.511 15.6,9.333 28.556,11.778c0.333,-9.2 1.333,-17.422 4.444,-24.956c6.195,-14.973 18.098,-26.884 33.067,-33.089c6.444,-2.667 13.111,-3.711 20.156,-4.178c6.778,-0.467 15.022,-0.467 24.889,-0.467l146.667,0c8.711,0 15.444,0 21.378,1.178c24.192,4.808 43.203,23.81 48.022,48c0.8,4.022 1.044,8.4 1.133,13.489c12.889,-2.444 21.511,-6.267 28.4,-11.756c4.237,-3.378 8.052,-7.193 11.444,-11.444c6.956,-8.711 11.2,-20.222 13.444,-39.622c2.289,-19.733 2.311,-45.422 2.311,-81.6c0,-27.222 -0.022,-46.2 -1.711,-60.711c-1.644,-14.156 -4.667,-21.911 -9.2,-27.6c-2.34,-2.919 -4.993,-5.572 -7.911,-7.911c-5.689,-4.533 -13.444,-7.556 -27.6,-9.2c-14.511,-1.689 -33.489,-1.711 -60.711,-1.711l-196.867,0c-27.222,0 -46.2,0.022 -60.711,1.711m275.778,253.156c-0.044,-6.222 -0.156,-8.511 -0.511,-10.289c-2.188,-10.995 -10.827,-19.634 -21.822,-21.822c-2.289,-0.444 -5.422,-0.533 -16.533,-0.533l-144.422,0c-10.578,0 -17.689,0 -23.178,0.378c-5.356,0.378 -7.956,1.022 -9.689,1.733c-6.802,2.823 -12.209,8.239 -15.022,15.044c-1.067,2.556 -1.733,6.267 -2,15.489c16.089,0.667 35.444,0.689 59.422,0.689l114.267,0c24,0 43.422,0 59.511,-0.689" style="fill:#003a65;"/><path d="M137.022,347.244c7.607,5.072 9.693,15.504 4.622,23.111l-6.822,10.222c-3.73,5.573 -2.421,13.192 2.956,17.2c19.439,14.569 24.158,42.154 10.667,62.356l-6.8,10.222c-3.072,4.72 -8.336,7.575 -13.968,7.575c-9.143,0 -16.667,-7.524 -16.667,-16.667c0,-3.352 1.011,-6.628 2.902,-9.397l6.8,-10.222c3.735,-5.567 2.435,-13.185 -2.933,-17.2c-19.439,-14.569 -24.158,-42.154 -10.667,-62.356l6.8,-10.222c5.072,-7.607 15.504,-9.693 23.111,-4.622m111.111,0c7.607,5.072 9.693,15.504 4.622,23.111l-6.822,10.222c-3.73,5.573 -2.421,13.192 2.956,17.2c19.439,14.569 24.158,42.154 10.667,62.356l-6.8,10.222c-3.072,4.72 -8.336,7.575 -13.968,7.575c-9.143,0 -16.667,-7.524 -16.667,-16.667c0,-3.352 1.011,-6.628 2.902,-9.397l6.8,-10.222c3.735,-5.567 2.435,-13.185 -2.933,-17.2c-19.439,-14.569 -24.158,-42.154 -10.667,-62.356l6.8,-10.222c5.072,-7.607 15.504,-9.693 23.111,-4.622m111.111,0c7.607,5.072 9.693,15.504 4.622,23.111l-6.822,10.222c-3.73,5.573 -2.421,13.192 2.956,17.2c19.439,14.569 24.158,42.154 10.667,62.356l-6.8,10.222c-3.072,4.72 -8.336,7.575 -13.968,7.575c-9.143,0 -16.667,-7.524 -16.667,-16.667c0,-3.352 1.011,-6.628 2.902,-9.397l6.8,-10.222c3.735,-5.567 2.435,-13.185 -2.933,-17.2c-19.439,-14.569 -24.158,-42.154 -10.667,-62.356l6.8,-10.222c5.072,-7.607 15.504,-9.693 23.111,-4.622" style="fill:#003a65;fill-rule:nonzero;"/></svg>