<?xml version="1.0" encoding="UTF-8" standalone="no"?><!DOCTYPE svg PUBLIC "-//W3C//DTD SVG 1.1//EN" "http://www.w3.org/Graphics/SVG/1.1/DTD/svg11.dtd"><svg width="100%" height="100%" viewBox="0 0 383 453" version="1.1" xmlns="http://www.w3.org/2000/svg" xmlns:xlink="http://www.w3.org/1999/xlink" xml:space="preserve" xmlns:serif="http://www.serif.com/" style="fill-rule:evenodd;clip-rule:evenodd;stroke-linejoin:round;stroke-miterlimit:2;"><path d="M275,440c-4.074,4.074 -8.793,7.222 -14.156,9.444c-5.363,2.222 -11.015,3.333 -16.956,3.333c-5.941,-0 -11.681,-1.111 -17.222,-3.333c-5.541,-2.222 -10.356,-5.37 -14.444,-9.444l-31.111,-31.111c-4.074,-4.074 -7.126,-8.607 -9.156,-13.6c-2.03,-4.993 -3.237,-10.089 -3.622,-15.289c-0.385,-5.2 0.267,-10.385 1.956,-15.556c1.689,-5.17 4.185,-9.985 7.489,-14.444l3.333,-4.444l-181.111,-258.889l86.667,-86.667l282.778,282.778c4.074,4.074 7.222,8.8 9.444,14.178c2.222,5.378 3.333,11.022 3.333,16.933c0,5.911 -1.111,11.652 -3.333,17.222c-2.222,5.57 -5.37,10.385 -9.444,14.444l-94.444,94.444Zm-31.111,-31.667l93.889,-93.889l-31.111,-31.667l-94.444,94.444l31.667,31.111Z" style="fill:#003a65;fill-rule:nonzero;"/></svg>