<?xml version="1.0" encoding="UTF-8" standalone="no"?><!DOCTYPE svg PUBLIC "-//W3C//DTD SVG 1.1//EN" "http://www.w3.org/Graphics/SVG/1.1/DTD/svg11.dtd"><svg width="100%" height="100%" viewBox="0 0 534 534" version="1.1" xmlns="http://www.w3.org/2000/svg" xmlns:xlink="http://www.w3.org/1999/xlink" xml:space="preserve" xmlns:serif="http://www.serif.com/" style="fill-rule:evenodd;clip-rule:evenodd;stroke-linecap:round;"><g><path d="M422.386,110.947l-311.439,311.439" style="fill:none;fill-rule:nonzero;stroke:#003a65;stroke-opacity:0.5;stroke-width:35.94px;"/><circle cx="266.667" cy="266.667" r="239.569" style="fill:none;stroke:#003a65;stroke-width:35.94px;stroke-linecap:butt;"/><path d="M325.471,164.866c2.306,-1.501 3.701,-4.073 3.701,-6.825c0,-4.467 -3.676,-8.143 -8.143,-8.143c-1.638,0 -3.238,0.494 -4.591,1.418l-31.65,21.107c-5.765,-2.298 -11.915,-3.478 -18.121,-3.474c-6.406,-0 -12.519,1.227 -18.121,3.474l-31.65,-21.107c-1.322,-0.86 -2.865,-1.318 -4.442,-1.318c-4.467,0 -8.143,3.676 -8.143,8.143c0,2.689 1.331,5.21 3.552,6.725l25.624,17.079c-7.709,7.127 -12.919,16.553 -14.853,26.872c4.832,-1.238 9.8,-1.865 14.788,-1.867l66.503,0c5.118,0.014 10.043,0.637 14.777,1.867c-1.934,-10.319 -7.144,-19.745 -14.853,-26.872l25.624,-17.079Zm-175.523,123.516c0,-4.467 3.676,-8.143 8.143,-8.143l32.573,0l0,-14.245c0,-9.077 2.823,-17.492 7.644,-24.408l-26.959,-10.792c-3,-1.275 -4.957,-4.234 -4.957,-7.494c0,-4.467 3.676,-8.143 8.143,-8.143c0.981,0 1.954,0.177 2.872,0.523l34.049,13.615c6.63,-3.988 14.228,-6.084 21.965,-6.059l66.492,0c8.035,0 15.548,2.215 21.965,6.059l34.049,-13.615c1.008,-0.428 2.091,-0.649 3.186,-0.649c4.467,0 8.143,3.676 8.143,8.143c0,3.382 -2.107,6.427 -5.271,7.62l-26.959,10.792c5.002,7.153 7.673,15.68 7.644,24.408l0,14.245l32.573,0c4.467,0 8.143,3.676 8.143,8.143c0,4.467 -3.676,8.143 -8.143,8.143l-32.573,0l0,2.714c0.007,12.368 -3.004,24.553 -8.773,35.493l28.088,11.238c3.084,1.236 5.117,4.24 5.117,7.562c0,4.469 -3.677,8.146 -8.146,8.146c-1.038,0 -2.066,-0.198 -3.029,-0.584l-31.4,-12.573c-12.598,14.792 -30.4,24.204 -49.717,26.286l0,-75.569c0,-4.467 -3.676,-8.143 -8.143,-8.143c-4.467,0 -8.143,3.676 -8.143,8.143l0,75.569c-19.316,-2.079 -37.117,-11.488 -49.717,-26.275l-31.389,12.551c-0.963,0.386 -1.992,0.584 -3.029,0.584c-4.469,0 -8.146,-3.677 -8.146,-8.146c0,-3.323 2.033,-6.327 5.117,-7.562l28.099,-11.238c-5.774,-10.935 -8.794,-23.116 -8.795,-35.482l0,-2.714l-32.573,0c-4.467,0 -8.143,-3.676 -8.143,-8.143" style="fill:#003a65;fill-rule:nonzero;"/></g></svg>