<?xml version="1.0" encoding="UTF-8" standalone="no"?><!DOCTYPE svg PUBLIC "-//W3C//DTD SVG 1.1//EN" "http://www.w3.org/Graphics/SVG/1.1/DTD/svg11.dtd"><svg width="100%" height="100%" viewBox="0 0 349 445" version="1.1" xmlns="http://www.w3.org/2000/svg" xmlns:xlink="http://www.w3.org/1999/xlink" xml:space="preserve" xmlns:serif="http://www.serif.com/" style="fill-rule:evenodd;clip-rule:evenodd;stroke-linejoin:round;stroke-miterlimit:2;"><path d="M348.586,188.668c-0.505,3.861 -2.128,7.492 -4.667,10.444l-216.667,238c-2.747,3.551 -6.566,6.123 -10.889,7.333c-1.852,0.222 -3.704,0.222 -5.556,0c-3.144,-0.015 -6.25,-0.696 -9.111,-2c-4.454,-2.092 -8.006,-5.723 -10,-10.222c-1.937,-4.003 -2.484,-8.54 -1.556,-12.889l19.111,-152.444l-80.667,0c-4.611,-0.287 -9.13,-1.416 -13.333,-3.333c-8.344,-4.394 -14.004,-12.635 -15.111,-22c-0.466,-4.687 0.22,-9.417 2,-13.778l84,-210c2.222,-5.311 5.911,-9.867 10.667,-13.111c4.758,-3.093 10.325,-4.717 16,-4.667l160.889,0c4.644,0.089 9.2,1.222 13.333,3.333c4.178,2.333 7.756,5.622 10.444,9.556c2.489,3.978 4,8.444 4.444,13.111c0.456,4.635 -0.311,9.309 -2.222,13.556l-53.111,123.778l81.111,0c4.03,0.135 7.948,1.364 11.333,3.556c7.278,4.864 11.031,13.594 9.556,22.222l0,-0.444Z" style="fill:#003a65;fill-rule:nonzero;"/></svg>