<?xml version="1.0" encoding="UTF-8" standalone="no"?><!DOCTYPE svg PUBLIC "-//W3C//DTD SVG 1.1//EN" "http://www.w3.org/Graphics/SVG/1.1/DTD/svg11.dtd"><svg width="100%" height="100%" viewBox="0 0 229 271" version="1.1" xmlns="http://www.w3.org/2000/svg" xmlns:xlink="http://www.w3.org/1999/xlink" xml:space="preserve" xmlns:serif="http://www.serif.com/" style="fill-rule:evenodd;clip-rule:evenodd;"><g><path d="M165.206,28.2c0,-3.666 -2.971,-6.637 -6.637,-6.637l-7.641,0c-3.671,0 -6.642,2.971 -6.642,6.637c0,3.023 -2.071,5.617 -4.89,6.726c-0.446,0.181 -0.887,0.366 -1.323,0.554c-2.777,1.203 -6.077,0.837 -8.221,-1.302c-2.575,-2.569 -6.807,-2.569 -9.382,0l-5.408,5.408c-2.569,2.575 -2.569,6.807 0,9.382c2.144,2.144 2.51,5.439 1.297,8.221c-0.191,0.438 -0.374,0.879 -0.549,1.323c-1.109,2.819 -3.703,4.89 -6.726,4.89c-3.666,-0 -6.637,2.971 -6.637,6.637l0,7.646c0,3.666 2.971,6.637 6.637,6.637c3.023,0 5.617,2.071 6.726,4.89c0.181,0.446 0.364,0.887 0.549,1.323c1.208,2.777 0.842,6.077 -1.297,8.221c-2.569,2.575 -2.569,6.807 0,9.382l5.408,5.408c2.575,2.569 6.807,2.569 9.382,0c2.144,-2.144 5.439,-2.51 8.221,-1.302c0.436,0.192 0.877,0.377 1.323,0.554c2.819,1.109 4.89,3.703 4.89,6.726c0,3.666 2.971,6.637 6.637,6.637l7.646,0c3.666,0 6.637,-2.971 6.637,-6.637c0,-3.023 2.071,-5.617 4.89,-6.731c0.446,-0.174 0.887,-0.356 1.323,-0.544c2.777,-1.213 6.077,-0.842 8.216,1.297c2.576,2.573 6.812,2.573 9.387,0l5.408,-5.408c2.569,-2.575 2.569,-6.807 0,-9.382c-2.144,-2.144 -2.51,-5.439 -1.302,-8.221c0.192,-0.436 0.377,-0.877 0.554,-1.323c1.109,-2.819 3.703,-4.89 6.726,-4.89c3.666,0 6.637,-2.971 6.637,-6.637l0,-7.641c0,-3.666 -2.971,-6.637 -6.637,-6.637c-3.023,0 -5.617,-2.071 -6.731,-4.89c-0.175,-0.444 -0.359,-0.885 -0.549,-1.323c-1.203,-2.777 -0.837,-6.077 1.302,-8.221c2.569,-2.575 2.569,-6.807 0,-9.382l-5.408,-5.408c-2.575,-2.569 -6.807,-2.569 -9.382,0c-2.144,2.144 -5.439,2.51 -8.221,1.302c-0.438,-0.192 -0.879,-0.377 -1.323,-0.554c-2.819,-1.114 -4.89,-3.708 -4.89,-6.726l0,-0.005Z" style="fill:none;fill-rule:nonzero;stroke:#003a65;stroke-width:10.46px;"/><path d="M175.665,73.861c0,11.476 -9.443,20.919 -20.919,20.919c-11.476,0 -20.919,-9.443 -20.919,-20.919c0,-11.476 9.443,-20.919 20.919,-20.919c11.476,0 20.919,9.443 20.919,20.919Z" style="fill:none;fill-rule:nonzero;stroke:#003a65;stroke-width:10.46px;"/></g><path d="M7.585,62.146c6.821,-8.876 17.412,-14.072 28.606,-14.035l5.748,0l26,100.284l139.106,0l0,14.857c0,21.581 -8.643,40.914 -24.336,54.44c-14.849,12.797 -35.225,19.845 -57.377,19.845l-17.7,0l3.714,33.428l-93.726,0l0,-114.194l-16.441,-63.413c-2.845,-10.826 -0.473,-22.382 6.406,-31.212m24.891,193.962l62.271,0l-3.714,-33.428l34.299,0c39.364,0 66.856,-24.438 66.856,-59.428l-159.711,0l0,92.856Zm-16.916,-166.479l15.236,58.766l21.794,0l-21.96,-84.701c-11.205,3.038 -17.979,14.695 -15.07,25.935l0.001,0Z" style="fill:#003a65;fill-rule:nonzero;"/></svg>