<?xml version="1.0" encoding="UTF-8" standalone="no"?><!DOCTYPE svg PUBLIC "-//W3C//DTD SVG 1.1//EN" "http://www.w3.org/Graphics/SVG/1.1/DTD/svg11.dtd"><svg width="100%" height="100%" viewBox="0 0 2225 2225" version="1.1" xmlns="http://www.w3.org/2000/svg" xmlns:xlink="http://www.w3.org/1999/xlink" xml:space="preserve" xmlns:serif="http://www.serif.com/" style="fill-rule:evenodd;clip-rule:evenodd;stroke-linejoin:round;stroke-miterlimit:2;"><g><path d="M2068.345,356.236l-1911.69,0c-61.478,0 -111.79,55.917 -111.79,111.212c0,55.295 50.312,111.168 111.79,111.168l27.002,0l0,222.424l1860.399,0l0,-222.424l24.289,0c61.522,0 111.79,-55.873 111.79,-111.168c0,-55.295 -50.268,-111.212 -111.79,-111.212m-955.845,334.526c-30.872,0 -55.873,-25.757 -55.873,-57.474c0,-31.718 25,-57.474 55.873,-57.474c30.917,0 55.873,25.757 55.873,57.474c0,31.718 -24.956,57.474 -55.873,57.474m-928.843,555.081l1860.399,0l-0,-355.789l-1860.399,0l-0,355.789Zm928.843,-239.061c30.917,0 55.873,25.712 55.873,57.43c0,31.762 -24.956,57.474 -55.873,57.474c-30.872,0 -55.873,-25.712 -55.873,-57.474c-0.044,-31.718 25,-57.43 55.873,-57.43m-928.843,328.12l0,476.388c0,31.584 3.959,57.474 34.698,57.474l223.492,0c30.739,0 44.663,-25.89 44.663,-57.474l0,-165.039l1254.694,0l0,165.039c0,31.584 11.21,57.474 41.905,57.474l223.536,0c30.65,0 37.367,-25.89 37.367,-57.474l0,-476.388l-1860.354,0Zm928.843,102.849c30.917,0 55.873,25.757 55.873,57.43c0,31.807 -24.956,57.43 -55.873,57.43c-30.872,0 -55.873,-25.623 -55.873,-57.43c-0.044,-31.629 25,-57.43 55.873,-57.43" style="fill:#003a65;fill-rule:nonzero;"/></g></svg>