<?xml version="1.0" encoding="UTF-8" standalone="no"?><!DOCTYPE svg PUBLIC "-//W3C//DTD SVG 1.1//EN" "http://www.w3.org/Graphics/SVG/1.1/DTD/svg11.dtd"><svg width="100%" height="100%" viewBox="0 0 500 389" version="1.1" xmlns="http://www.w3.org/2000/svg" xmlns:xlink="http://www.w3.org/1999/xlink" xml:space="preserve" xmlns:serif="http://www.serif.com/" style="fill-rule:evenodd;clip-rule:evenodd;stroke-linejoin:round;stroke-miterlimit:2;"><path d="M305.354,201.256l0,-173.496c0,-15.354 -12.405,-27.759 -27.759,-27.759l-55.519,0c-15.354,0 -27.759,12.405 -27.759,27.759l0,173.496c0,11.538 -9.282,20.82 -20.82,20.82c-11.538,0 -20.82,-9.282 -20.82,-20.82l0,-161.265c-74.603,27.499 -124.917,98.633 -124.917,182.085l0,55.519l444.151,0l0,-55.519c-0.867,-82.584 -50.661,-154.152 -124.917,-181.998l0,161.178c0,11.538 -9.282,20.82 -20.82,20.82c-11.538,0 -20.82,-20.82 -20.82,-20.82m-270.654,117.978c-19.171,0 -34.699,15.528 -34.699,34.699c0,19.171 15.528,34.699 34.699,34.699l430.271,0c19.171,0 34.699,-15.528 34.699,-34.699c0,-19.171 -15.528,-34.699 -34.699,-34.699l-430.271,0Z" style="fill:#003a65;fill-rule:nonzero;"/></svg>