<?xml version="1.0" encoding="UTF-8" standalone="no"?><!DOCTYPE svg PUBLIC "-//W3C//DTD SVG 1.1//EN" "http://www.w3.org/Graphics/SVG/1.1/DTD/svg11.dtd"><svg width="100%" height="100%" viewBox="0 0 312 393" version="1.1" xmlns="http://www.w3.org/2000/svg" xmlns:xlink="http://www.w3.org/1999/xlink" xml:space="preserve" xmlns:serif="http://www.serif.com/" style="fill-rule:evenodd;clip-rule:evenodd;stroke-linejoin:round;stroke-miterlimit:2;"><path d="M155.556,371.378c35.926,-11.111 65.926,-33.052 90,-65.822c24.074,-32.77 38.148,-69.348 42.222,-109.733l-132.222,0l0,-174.578l-124.356,46.156c-2.859,1.141 -5.067,2.852 -6.622,5.133c-1.57,2.281 -2.356,4.844 -2.356,7.689l0,105.178c0,2.874 0.37,6.348 1.111,10.422l132.222,0l0,175.556Zm0,20.933c-2.015,0 -4.141,-0.185 -6.378,-0.556c-2.237,-0.37 -4.311,-0.926 -6.222,-1.667c-43.748,-16.667 -78.511,-44.933 -104.289,-84.8c-25.778,-39.867 -38.667,-83.022 -38.667,-129.467l0,-95.178c0,-7.556 2.185,-14.393 6.556,-20.511c4.37,-6.119 9.963,-10.563 16.778,-13.333l119.667,-44.444c4.326,-1.57 8.511,-2.356 12.556,-2.356c4.044,0 8.237,0.785 12.578,2.356l119.644,44.444c6.815,2.77 12.407,7.215 16.778,13.333c4.37,6.119 6.556,12.956 6.556,20.511l0,95.178c0,46.444 -12.889,89.6 -38.667,129.467c-25.778,39.867 -60.541,68.133 -104.289,84.8c-1.926,0.741 -4,1.296 -6.222,1.667c-2.222,0.37 -4.348,0.556 -6.378,0.556" style="fill:#003a65;fill-rule:nonzero;"/></svg>